<?xml version="1.0" standalone="no"?>
<!DOCTYPE svg PUBLIC "-//W3C//DTD SVG 20010904//EN"
 "http://www.w3.org/TR/2001/REC-SVG-20010904/DTD/svg10.dtd">
<svg version="1.0" xmlns="http://www.w3.org/2000/svg"
 width="1280.000000pt" height="640.000000pt" viewBox="0 0 1280.000000 640.000000"
 preserveAspectRatio="xMidYMid meet">
<metadata>
Created by potrace 1.15, written by Peter Selinger 2001-2017
</metadata>
<g transform="translate(0.000000,640.000000) scale(0.100000,-0.100000)"
fill="#000000" stroke="none">
<path d="M5 5661 c-18 -30 170 -761 252 -981 44 -118 357 -820 425 -953 119
-232 344 -507 773 -946 589 -602 1225 -1009 2265 -1448 646 -273 1087 -407
1624 -493 353 -56 576 -74 1158 -91 423 -13 716 -8 943 16 291 30 715 105 878
154 218 66 769 277 942 361 411 200 853 790 1044 1395 22 72 46 151 53 176
l13 46 80 -17 c585 -124 1345 -559 1841 -1055 212 -212 329 -373 375 -519 32
-100 54 -104 45 -8 -12 120 23 456 71 672 13 63 14 75 2 79 -22 7 -707 354
-1019 516 -470 244 -825 410 -1170 546 -96 39 -183 73 -193 77 -12 5 -38 57
-73 147 -72 185 -224 492 -314 635 -147 232 -303 423 -521 635 -302 295 -529
436 -1004 625 -192 76 -321 115 -625 189 -538 132 -659 150 -1071 158 -400 8
-686 -18 -979 -87 -69 -17 -216 -50 -328 -75 -246 -55 -318 -80 -576 -200
-300 -138 -615 -251 -986 -354 -170 -46 -216 -56 -370 -75 -212 -27 -465 -39
-713 -33 -212 4 -264 9 -422 36 -465 82 -1076 236 -1352 341 -107 41 -288 133
-598 305 -368 204 -457 246 -470 226z"/>
</g>
</svg>
